<svg xmlns="http://www.w3.org/2000/svg" width="11.078" height="20.502" viewBox="0 0 11.078 20.502">
  <path id="Path_3" data-name="Path 3" d="M32.743,0H30.085a4.669,4.669,0,0,0-4.917,5.045V7.371H22.5a.418.418,0,0,0-.418.418v3.37a.418.418,0,0,0,.418.418h2.673v8.5a.418.418,0,0,0,.418.418h3.487a.418.418,0,0,0,.418-.418v-8.5h3.125a.418.418,0,0,0,.418-.418V7.789a.418.418,0,0,0-.418-.418h-3.13V5.4c0-.948.226-1.429,1.46-1.429h1.791a.418.418,0,0,0,.418-.418V.422A.418.418,0,0,0,32.743,0Z" transform="translate(-22.082 0.007)" fill="#fff"/>
</svg>
