<svg xmlns="http://www.w3.org/2000/svg" xmlns:xlink="http://www.w3.org/1999/xlink" version="1.1" x="0px" y="0px" viewBox="0 0 60 75" style="enable-background:new 0 0 60 60;" xml:space="preserve"><path d="M40.6845703,44.3499756c0.0994263,0,0.1988525-0.0200806,0.2922363-0.0588989  c0.0939941-0.0391235,0.1779785-0.0963135,0.2484131-0.1675415c0.0007324-0.0007324,0.0018311-0.0009766,0.0025635-0.001709  c0.0169678-0.017334,0.0230103-0.0400391,0.0380249-0.0585327c0.0473022-0.0579224,0.0931396-0.1170654,0.1218262-0.1873779  c0.0269775-0.0661011,0.0339355-0.1359863,0.0415039-0.2058716c0.0031128-0.0279541,0.0163574-0.0523071,0.0163574-0.0810547  v-19.826355c0-0.0287476-0.0132446-0.0531006-0.0163574-0.0810547c-0.0075684-0.0698853-0.0145264-0.1397705-0.0415039-0.2058716  c-0.0286865-0.0703125-0.0745239-0.1294556-0.1218262-0.1873779c-0.0150146-0.0184937-0.0210571-0.0411987-0.0380249-0.0585327  c-0.0007324-0.0007324-0.0018311-0.0009766-0.0025635-0.001709c-0.0700684-0.0709229-0.1535645-0.1281738-0.2470093-0.1672363  c-0.0927124-0.0387573-0.1914673-0.0579224-0.2904053-0.0585327c-0.0011597,0-0.0020752-0.0006714-0.0032349-0.0006714H11.7371826  c-0.0012817,0-0.0022583,0.0007324-0.00354,0.0007324c-0.0991211,0.0005493-0.197998,0.0197144-0.2907715,0.0585938  c-0.0931396,0.0390625-0.1764526,0.0963745-0.2463379,0.1671143c-0.0007324,0.0007324-0.0018311,0.0009155-0.0025635,0.001709  c-0.0167847,0.0171509-0.0227661,0.0396118-0.0375977,0.0578613c-0.0475464,0.0581055-0.0936279,0.1174927-0.1223755,0.1881714  c-0.0267944,0.0656128-0.0335693,0.1352539-0.0412598,0.2046509c-0.0031738,0.0283203-0.0165405,0.0529785-0.0165405,0.0821533  v19.826355c0,0.0291748,0.0133667,0.053833,0.0165405,0.0821533c0.0076904,0.069397,0.0144653,0.1390381,0.0412598,0.2046509  c0.0287476,0.0706787,0.0748291,0.1300659,0.1223755,0.1881714c0.0148315,0.0182495,0.020813,0.0407104,0.0375977,0.0578613  c0.0007324,0.0007324,0.0018311,0.0009766,0.0025635,0.001709c0.0703735,0.071228,0.1543579,0.1283569,0.24823,0.1674805  c0.0934448,0.0388794,0.192749,0.05896,0.2924194,0.05896H40.6845703z M25.6780396,38.5031128  c0.1478882,0.1448975,0.340332,0.2177124,0.5328369,0.2177124c0.1924438,0,0.3849487-0.0728149,0.5327759-0.2177124  l3.8345947-3.7613525l8.2438965,8.0863037H13.5994263l8.2436523-8.0866699L25.6780396,38.5031128z M31.664856,33.6759033  l8.258728-8.1010132v16.2018433L31.664856,33.6759033z M30.0353394,33.1427612  c-0.0001221,0.0001221-0.0002441,0.0001221-0.0003662,0.0002441c-0.000061,0.000061-0.0001221,0.0002441-0.0001831,0.0003052  l-3.8239136,3.7509155L13.5994873,24.5235596h25.2227173L30.0353394,33.1427612z M20.7564697,33.6755371l-8.2583618,8.1011353  V25.5748901L20.7564697,33.6755371z"/><path d="M40.6845703,15.6500244c-0.4205933,0-0.7609863,0.340332-0.7609863,0.7609253  c0,0.4206543,0.3403931,0.7609863,0.7609863,0.7609863c3.7593994,0,6.8173218,3.0579224,6.8173218,6.8173218  c0,0.4206543,0.3403931,0.7609863,0.7609863,0.7609863s0.7609253-0.340332,0.7609253-0.7609863  C49.0238037,19.3908691,45.282959,15.6500244,40.6845703,15.6500244z"/><path d="M40.6845703,18.633606c-0.4205933,0-0.7609863,0.3403931-0.7609863,0.7609863s0.3403931,0.7609253,0.7609863,0.7609253  c2.1134033,0,3.8330078,1.7196045,3.8330078,3.8337402c0,0.4206543,0.340332,0.7609863,0.7609253,0.7609863  s0.7609863-0.340332,0.7609863-0.7609863C46.0394897,21.0361328,43.6369629,18.633606,40.6845703,18.633606z"/><text x="0" y="75" fill="#000000" font-size="5px" font-weight="bold" font-family="'Helvetica Neue', Helvetica, Arial-Unicode, Arial, Sans-serif">Created by Vectorstall</text><text x="0" y="80" fill="#fff" font-size="105px" font-weight="bold" font-family="'Helvetica Neue', Helvetica, Arial-Unicode, Arial, Sans-serif">from the Noun Project</text></svg>