<svg xmlns="http://www.w3.org/2000/svg" width="20.5" height="16.66" viewBox="0 0 20.5 16.66">
  <path id="Path_5" data-name="Path 5" d="M20.5,49.972a8.762,8.762,0,0,1-2.422.664,4.179,4.179,0,0,0,1.849-2.323,8.4,8.4,0,0,1-2.665,1.017,4.2,4.2,0,0,0-7.27,2.87,4.327,4.327,0,0,0,.1.958,11.9,11.9,0,0,1-8.663-4.4A4.2,4.2,0,0,0,2.72,54.375a4.15,4.15,0,0,1-1.9-.518V53.9a4.222,4.222,0,0,0,3.367,4.129,4.2,4.2,0,0,1-1.1.138,3.716,3.716,0,0,1-.8-.072,4.243,4.243,0,0,0,3.927,2.928A8.445,8.445,0,0,1,1,62.818a7.871,7.871,0,0,1-1-.048,11.832,11.832,0,0,0,6.447,1.886A11.879,11.879,0,0,0,18.409,52.7c0-.186-.006-.365-.015-.543A8.384,8.384,0,0,0,20.5,49.972Z" transform="translate(0 -47.996)" fill="#fff"/>
</svg>
