<svg xmlns="http://www.w3.org/2000/svg" width="20.499" height="14.094" viewBox="0 0 20.499 14.094">
  <path id="Path_9" data-name="Path 9" d="M19.629,81.358c-.556-.989-1.16-1.171-2.388-1.24S12.927,80,10.253,80s-5.767.035-6.993.117-1.831.251-2.392,1.242S0,84.047,0,87.043v.01c0,2.983.295,4.7.867,5.675S2.032,93.9,3.258,93.98s4.315.114,6.994.114,5.76-.042,6.989-.113,1.832-.263,2.388-1.252c.578-.978.87-2.692.87-5.675v-.01C20.5,84.047,20.208,82.346,19.629,81.358ZM7.687,90.891V83.2l6.406,3.844Z" transform="translate(0 -80)" fill="#fff"/>
</svg>
